<?xml version="1.0" standalone="no"?>
<!DOCTYPE svg PUBLIC "-//W3C//DTD SVG 20010904//EN"
 "http://www.w3.org/TR/2001/REC-SVG-20010904/DTD/svg10.dtd">
<svg version="1.0" xmlns="http://www.w3.org/2000/svg"
 width="810.000000pt" height="374.000000pt" viewBox="0 0 810.000000 374.000000"
 preserveAspectRatio="xMidYMid meet">

<g transform="translate(0.000000,374.000000) scale(0.100000,-0.100000)"
fill="#000000" stroke="none">
<path d="M4010 3738 c0 -2 12 -34 25 -73 14 -38 27 -74 28 -80 2 -5 6 -16 10
-22 5 -7 5 -18 1 -25 -5 -7 -3 -8 6 -3 10 6 12 4 7 -8 -3 -10 -2 -17 3 -17 6
0 10 -6 10 -14 0 -7 6 -19 14 -25 7 -6 16 -25 20 -41 3 -18 12 -30 21 -30 8 0
15 -9 15 -20 0 -10 9 -24 20 -30 11 -6 20 -18 20 -27 0 -9 3 -13 6 -10 4 4 15
-3 25 -15 20 -23 79 -30 132 -16 15 3 27 2 27 -3 0 -5 27 -6 63 -3 34 4 71 5
82 4 54 -6 145 3 165 15 16 10 250 16 250 6 0 -8 167 -6 207 3 21 5 67 -1 142
-19 107 -26 115 -30 199 -95 48 -37 105 -83 127 -102 l39 -35 50 66 c62 82 58
78 133 133 41 30 90 54 150 73 48 16 102 38 118 50 46 34 85 52 150 69 33 9
67 19 75 22 8 2 58 16 110 30 92 24 105 25 405 25 278 1 319 -2 402 -20 91
-21 94 -21 171 -3 131 31 459 19 610 -22 l52 -14 0 139 0 139 -2045 0 c-1125
0 -2045 -1 -2045 -2z"/>
<path d="M1680 3491 c-8 -5 -31 -11 -51 -15 -20 -3 -44 -15 -55 -27 -13 -14
-25 -18 -46 -14 -17 4 -36 1 -50 -9 -12 -9 -30 -16 -40 -16 -19 0 -58 -33 -58
-50 0 -5 14 -25 30 -43 17 -20 30 -46 30 -61 0 -15 9 -44 20 -66 24 -47 26
-78 4 -87 -10 -4 -24 4 -39 22 l-22 29 -12 -23 c-7 -13 -10 -33 -7 -44 5 -21
72 -67 98 -67 7 0 28 -15 47 -32 25 -22 36 -43 43 -77 4 -25 15 -51 23 -57 20
-15 19 -37 -3 -57 -24 -22 -43 -22 -35 -1 4 12 2 15 -8 12 -8 -3 -15 -11 -15
-19 -1 -8 -3 -16 -4 -19 -2 -3 -4 -22 -5 -42 -2 -34 0 -38 23 -38 27 0 51 -25
52 -52 0 -14 8 -18 34 -18 36 0 52 -12 41 -30 -5 -8 -11 -7 -20 0 -10 8 -19 8
-34 0 -29 -15 -26 -22 7 -19 54 5 93 -46 60 -79 -6 -6 -9 -15 -5 -19 4 -3 13
2 20 11 12 17 18 17 49 6 40 -15 68 -8 68 14 0 10 -6 13 -15 10 -10 -4 -15 0
-15 11 0 9 9 19 20 22 11 3 20 10 20 15 0 6 -7 8 -15 4 -18 -7 -20 5 -3 22 10
10 10 17 0 32 -16 26 -15 40 3 40 8 0 15 5 15 10 0 6 6 10 13 10 7 0 24 14 36
31 23 30 23 33 7 66 -13 27 -20 33 -37 28 -26 -8 -51 12 -44 36 3 10 0 27 -7
38 -10 17 -9 23 6 40 11 12 19 34 18 51 0 19 4 30 13 30 7 0 21 14 29 32 16
31 16 32 -11 54 -19 16 -36 21 -53 17 -33 -8 -36 -11 -22 -25 7 -7 12 -16 12
-21 0 -5 -9 2 -20 16 -11 14 -20 32 -20 40 0 13 -8 14 -37 10 -60 -10 -68 -9
-68 7 0 11 15 16 57 20 31 3 60 8 63 12 15 15 21 75 12 112 -9 34 -8 41 9 53
10 8 30 13 44 11 23 -3 26 -8 33 -78 7 -73 6 -106 -8 -142 -5 -13 -2 -18 11
-18 10 0 41 -11 69 -24 65 -31 133 -46 161 -36 21 9 54 60 54 86 0 8 -21 24
-47 36 -43 21 -48 27 -51 60 -3 34 1 40 37 65 60 42 60 55 0 114 -28 27 -57
48 -64 45 -7 -2 -22 2 -34 10 -17 12 -31 13 -78 5 -31 -6 -67 -18 -81 -27 -29
-19 -48 -13 -63 20 -7 14 -25 30 -42 36 -16 5 -30 10 -31 10 -1 0 -8 -4 -16
-9z m-110 -775 c0 -3 -4 -8 -10 -11 -5 -3 -10 -1 -10 4 0 6 5 11 10 11 6 0 10
-2 10 -4z"/>
<path d="M990 3350 c-7 -12 -21 -20 -38 -20 -22 -1 -33 -11 -59 -54 -18 -30
-33 -61 -33 -68 0 -27 37 -51 66 -44 31 8 64 -16 64 -47 0 -16 -5 -19 -28 -14
-23 5 -33 -1 -60 -34 -20 -24 -32 -48 -30 -61 4 -30 24 -33 45 -9 20 24 35 26
62 9 15 -9 29 -8 67 7 l47 18 24 -28 c36 -42 28 -77 -22 -93 -47 -15 -75 -39
-75 -62 0 -14 12 -19 54 -24 31 -4 64 -16 77 -27 12 -10 29 -19 37 -19 19 0
52 -38 46 -54 -3 -8 -16 -11 -34 -8 -21 3 -31 0 -35 -12 -3 -9 -7 -23 -10 -32
-4 -12 -9 -13 -18 -5 -23 18 -80 -18 -88 -56 -6 -30 -4 -32 35 -47 23 -9 49
-16 58 -16 19 0 29 -21 21 -49 -5 -18 -1 -21 26 -21 32 0 37 -6 22 -29 -5 -8
-16 -11 -30 -6 -15 4 -23 1 -27 -10 -9 -23 4 -31 26 -17 17 10 20 10 20 -3 0
-9 -11 -20 -24 -25 -13 -5 -27 -14 -31 -19 -3 -6 -16 -11 -29 -11 -12 0 -27
-5 -34 -12 -6 -6 -15 -8 -19 -4 -5 4 4 17 20 28 28 21 36 48 14 48 -7 0 -18
-5 -24 -11 -7 -7 -15 -6 -26 6 -20 19 -57 5 -57 -23 0 -9 -16 -30 -35 -45 -30
-24 -36 -26 -41 -12 -5 12 -9 13 -20 4 -11 -9 -18 -6 -34 12 -10 13 -19 29
-20 36 0 6 -8 9 -19 6 -21 -5 -37 35 -21 51 6 6 10 18 10 29 0 12 4 16 13 10
6 -4 27 -8 45 -10 37 -2 42 15 12 42 -11 10 -19 27 -19 39 0 11 -1 28 -2 36
-5 32 2 50 19 50 29 0 46 16 34 31 -50 61 -62 81 -62 105 0 16 -5 46 -11 67
-10 38 -12 39 -46 32 -29 -5 -38 -3 -50 15 -11 15 -18 18 -27 11 -9 -8 -19 -4
-36 14 -25 27 -49 32 -68 13 -9 -9 -16 -8 -30 5 -24 22 -45 21 -90 -2 -20 -11
-49 -24 -65 -30 -55 -22 -91 -125 -62 -181 9 -18 23 -30 36 -30 11 0 37 -9 58
-19 25 -13 42 -16 52 -10 8 5 25 9 38 9 20 0 21 -2 11 -15 -10 -12 -10 -18 0
-30 7 -9 15 -13 18 -11 2 3 12 1 22 -4 11 -6 26 -4 44 6 16 8 38 14 50 14 22
0 76 -47 76 -66 0 -5 -20 -18 -44 -29 -38 -17 -44 -24 -44 -48 1 -15 5 -30 10
-33 16 -10 8 -26 -12 -21 -10 3 -22 0 -25 -7 -3 -6 -2 7 1 29 l5 40 -21 -21
c-29 -28 -41 -114 -16 -114 22 0 20 -16 -8 -75 -13 -27 -27 -58 -30 -69 -6
-16 -9 -15 -38 13 -17 17 -38 31 -45 31 -20 0 -16 17 8 34 32 22 59 73 59 111
0 33 -2 35 -40 41 -22 4 -45 13 -51 20 -6 8 -18 14 -26 14 -24 0 -63 51 -63
82 0 69 -46 89 -97 43 -16 -14 -40 -34 -55 -46 -19 -14 -28 -30 -28 -49 0 -19
-7 -33 -20 -40 -16 -9 -19 -20 -17 -68 2 -55 1 -57 -24 -57 -35 -1 -117 -69
-135 -111 -18 -43 -18 -116 0 -159 17 -39 48 -46 89 -21 12 8 54 17 92 20 81
7 116 -5 125 -44 4 -18 14 -26 33 -28 15 -2 27 -8 27 -13 0 -5 12 -22 28 -38
15 -16 35 -39 44 -50 15 -17 21 -19 48 -9 17 6 37 19 43 29 7 11 22 19 35 19
l23 0 -20 -26 c-15 -19 -19 -37 -17 -66 3 -23 1 -48 -4 -57 -18 -38 -32 -96
-34 -147 -3 -67 -16 -83 -51 -64 -47 25 -76 94 -89 210 -10 95 -13 105 -31
105 -18 0 -20 -6 -17 -62 4 -60 3 -62 -22 -69 -50 -12 -114 5 -138 36 -28 38
-46 44 -74 25 -37 -24 -66 -92 -69 -160 -4 -80 14 -115 58 -115 18 0 42 -7 53
-15 10 -8 29 -15 40 -15 12 0 27 -7 34 -15 18 -22 -15 -32 -38 -12 -16 14 -19
14 -41 -3 -31 -23 -47 -123 -25 -155 8 -11 14 -30 14 -44 0 -13 7 -32 16 -42
10 -11 18 -44 22 -86 4 -54 10 -72 28 -90 13 -12 24 -30 24 -40 1 -19 93 -83
121 -83 20 0 46 28 51 55 5 32 36 31 44 -2 4 -15 15 -36 25 -46 24 -23 24 -36
-1 -62 -18 -19 -19 -26 -8 -79 14 -64 51 -102 97 -98 13 1 34 -7 46 -18 11
-11 35 -22 52 -26 26 -5 34 -2 47 18 13 20 14 30 4 62 -12 38 -11 40 22 67 40
34 70 37 95 9 10 -11 33 -25 51 -32 19 -7 34 -16 34 -21 0 -5 -13 -22 -30 -38
-20 -21 -36 -28 -48 -25 -22 7 -72 -28 -72 -49 0 -8 14 -30 30 -48 17 -19 30
-42 30 -51 0 -12 10 -16 39 -16 49 0 60 -22 31 -62 -11 -15 -20 -34 -20 -41 0
-26 82 -117 106 -117 12 0 27 -6 34 -14 8 -11 25 -13 63 -9 29 3 57 10 63 14
6 5 14 37 17 70 6 74 24 97 58 78 43 -23 89 -64 89 -80 0 -8 -11 -26 -25 -39
-35 -33 -29 -57 30 -104 52 -43 58 -44 182 -37 42 2 56 50 52 184 -4 130 2
146 40 106 21 -22 21 -22 36 -3 8 10 15 25 15 32 0 14 20 17 20 3 0 -14 52
-23 63 -12 34 34 36 -16 3 -56 -32 -38 -46 -68 -46 -94 0 -13 -12 -40 -26 -61
-28 -39 -27 -65 3 -74 10 -3 32 -12 50 -21 18 -9 42 -13 54 -10 12 3 31 1 41
-4 31 -17 148 45 148 78 0 8 -20 33 -45 55 -41 37 -45 44 -39 75 5 28 2 37
-20 54 -14 11 -26 26 -26 33 0 7 -10 18 -22 24 -23 11 -23 11 4 11 18 1 29 8
34 24 13 37 12 41 -23 74 -40 39 -44 85 -11 120 23 25 9 33 -16 8 -8 -8 -19
-15 -24 -15 -13 0 -23 53 -11 64 5 6 9 19 9 29 0 15 -3 17 -14 8 -10 -8 -18
-4 -36 19 -19 25 -24 27 -36 15 -12 -12 -19 -12 -49 0 -32 14 -35 14 -49 -7
-9 -12 -16 -20 -17 -18 0 3 -2 15 -3 27 -4 37 -13 37 -60 -1 -26 -22 -47 -33
-51 -26 -8 13 -85 13 -85 0 0 -5 -12 -10 -26 -10 -22 0 -25 -2 -14 -15 10 -12
10 -18 0 -30 -14 -17 -40 -20 -40 -4 0 7 -14 8 -39 4 -32 -5 -52 -1 -103 23
-34 17 -78 33 -96 37 -22 5 -36 15 -42 31 -5 13 -14 24 -19 24 -28 0 -63 -23
-72 -47 -9 -25 -11 -26 -20 -10 -6 9 -7 26 -4 37 3 11 3 40 -1 66 -6 42 -8 45
-30 40 -14 -4 -24 -2 -24 4 0 5 -5 10 -11 10 -8 0 -8 -5 1 -15 13 -16 7 -45
-10 -45 -19 0 -27 42 -18 89 10 54 3 87 -13 58 -6 -9 -7 -22 -3 -29 5 -8 0 -9
-17 -5 -25 7 -109 -27 -109 -44 0 -5 -4 -9 -10 -9 -13 0 -13 27 -1 32 5 2 -12
50 -40 108 -27 58 -49 110 -49 116 0 6 -7 17 -15 24 -20 17 -19 27 6 41 15 8
24 8 32 0 16 -16 25 -14 32 9 4 11 15 20 26 20 16 0 19 -4 14 -20 -7 -21 9
-50 26 -50 5 0 9 7 9 15 0 40 55 -3 81 -62 8 -18 20 -33 26 -33 18 0 16 10 -8
49 -35 58 -23 143 16 111 8 -7 15 -18 15 -25 0 -7 6 -27 13 -45 13 -29 15 -30
30 -16 9 9 18 12 21 7 4 -5 0 -11 -6 -14 -10 -4 -11 -7 0 -18 10 -11 12 -10
12 2 0 8 9 25 20 37 23 24 27 62 6 62 -7 0 -20 10 -28 23 -13 20 -13 24 4 41
22 24 24 56 2 56 -11 0 -14 -6 -9 -20 9 -27 -8 -25 -20 2 -6 13 -24 26 -42 30
-24 6 -34 16 -39 36 -4 15 -13 35 -22 44 -10 12 -12 27 -7 50 7 32 13 91 14
136 1 27 21 30 21 3 0 -11 5 -23 10 -26 6 -3 10 -17 10 -29 0 -29 26 -92 41
-102 6 -3 15 0 20 7 6 9 12 10 17 4 4 -5 16 -15 27 -21 11 -6 22 -20 24 -30 5
-27 21 -44 41 -44 16 0 16 4 6 33 -6 18 -20 46 -31 62 -21 33 -27 54 -18 68 3
5 14 -10 24 -32 10 -23 30 -52 44 -66 18 -16 24 -28 18 -37 -4 -7 -8 -24 -8
-38 0 -20 -6 -26 -29 -28 -16 -2 -32 2 -37 9 -4 8 -11 10 -15 7 -3 -4 8 -19
25 -33 17 -15 31 -35 31 -46 0 -27 -19 -24 -30 6 -12 31 -34 34 -25 3 6 -17 4
-20 -9 -15 -11 5 -16 1 -16 -12 0 -14 5 -18 18 -14 25 6 50 -23 34 -39 -16
-16 -15 -28 3 -28 8 0 15 -4 15 -10 0 -5 -9 -10 -20 -10 -15 0 -20 -7 -20 -25
0 -29 41 -60 66 -51 10 4 24 -2 36 -16 10 -13 28 -33 39 -45 20 -25 49 -31 49
-11 0 8 3 8 9 2 9 -8 6 -29 -15 -118 -4 -16 -20 -41 -37 -56 l-30 -27 22 -30
c16 -21 29 -29 42 -26 12 3 21 -1 24 -11 17 -55 15 -53 26 -33 6 9 17 17 24
17 9 0 15 10 15 24 0 14 5 28 10 31 5 3 10 2 10 -3 0 -15 35 -21 55 -10 11 7
21 6 28 -1 6 -6 22 -11 35 -11 13 0 32 -5 44 -11 16 -9 24 -7 39 10 28 30 53
28 45 -4 -9 -34 9 -32 22 2 13 35 11 78 -5 94 -17 17 -34 1 -27 -24 4 -18 1
-23 -15 -24 -12 -1 -21 4 -21 11 0 7 -9 21 -20 31 -11 10 -20 27 -20 37 0 18
1 18 22 -2 21 -20 23 -20 35 -4 7 10 13 23 13 30 0 6 7 18 17 25 15 13 16 11
9 -14 -7 -28 -7 -28 19 -11 18 12 25 25 25 50 0 32 20 59 28 36 5 -17 22 -15
22 3 0 19 16 20 23 1 6 -15 -11 -36 -30 -36 -6 0 -20 -16 -29 -36 -9 -20 -27
-40 -38 -44 -14 -6 -16 -9 -5 -9 9 -1 22 -12 29 -26 7 -14 20 -25 29 -25 13 0
13 2 2 9 -8 5 -10 14 -6 21 6 10 11 9 21 -4 7 -10 27 -19 45 -20 25 -2 34 3
43 23 8 19 17 25 34 23 28 -4 28 12 0 32 -17 12 -19 18 -9 30 17 20 6 35 -19
29 -17 -5 -20 -1 -16 18 3 13 5 27 5 32 2 12 40 8 53 -7 11 -12 17 -12 41 2
15 9 27 20 27 24 0 4 10 8 23 7 20 0 20 -1 3 -8 -18 -7 -18 -8 -3 -14 39 -15
66 25 53 77 -3 14 -2 28 4 31 13 8 13 25 -1 25 -6 0 -17 -7 -26 -16 -11 -10
-19 -12 -26 -5 -14 14 -21 95 -8 87 16 -10 61 5 61 21 0 14 68 49 78 39 3 -3
-9 -11 -26 -17 -20 -7 -32 -18 -32 -29 0 -29 17 -33 40 -10 24 24 27 5 4 -21
-9 -10 -14 -25 -11 -33 8 -20 48 -8 55 16 3 12 10 17 20 13 16 -6 41 21 42 45
0 9 9 16 19 16 18 0 18 -2 5 -28 -8 -15 -10 -29 -5 -33 10 -6 41 21 41 36 0 5
8 9 18 8 10 0 12 -3 5 -6 -19 -7 -16 -23 5 -23 11 0 8 -5 -12 -15 -15 -8 -35
-15 -42 -15 -9 0 -14 -11 -14 -31 0 -19 4 -28 11 -23 6 3 24 -4 41 -16 27 -20
31 -20 53 -6 31 21 45 20 61 -1 12 -17 14 -17 33 4 12 13 28 20 36 17 8 -4 21
-2 28 3 6 6 34 10 60 10 56 1 58 3 63 40 3 33 -27 75 -53 71 -13 -2 -19 7 -25
40 -9 55 -14 62 -44 62 -13 0 -24 4 -24 10 0 5 7 7 15 4 17 -7 19 4 5 40 -8
21 -16 26 -45 26 -22 0 -34 4 -30 10 3 6 -1 10 -11 10 -14 0 -14 -3 -4 -15 17
-21 6 -29 -20 -15 -15 8 -19 17 -14 32 5 17 3 19 -18 13 -12 -4 -26 -13 -30
-19 -6 -8 -11 -7 -17 3 -7 11 -9 11 -13 0 -3 -8 -10 -10 -24 -4 -17 7 -17 8
-1 12 18 5 24 23 7 23 -5 0 -7 7 -4 15 4 9 0 15 -10 15 -9 0 -16 8 -16 20 0
22 -7 25 -28 11 -11 -7 -11 -11 2 -24 21 -21 20 -37 -3 -37 -20 0 -35 25 -25
41 3 5 0 9 -5 9 -11 0 -15 -13 -12 -37 1 -7 -7 -13 -19 -13 -17 0 -19 4 -14
28 6 23 5 25 -8 14 -16 -13 -44 -12 -66 2 -7 4 -19 3 -27 -4 -8 -6 -19 -9 -25
-5 -17 10 8 35 35 35 13 0 26 6 28 13 3 6 6 2 6 -10 1 -13 5 -23 10 -23 13 0
21 39 9 46 -5 4 0 16 12 29 l21 23 36 -35 c28 -28 37 -33 44 -22 8 12 11 12
20 -1 9 -13 10 -13 6 0 -2 8 -14 14 -25 13 -24 -3 -47 30 -35 50 4 6 8 26 8
44 0 26 -2 29 -15 20 -8 -7 -18 -16 -21 -20 -8 -11 -36 2 -43 19 -4 10 7 19
34 30 32 13 38 19 30 29 -12 14 8 67 30 80 5 3 20 28 31 56 15 34 27 49 40 49
24 0 24 -12 0 -27 -10 -7 -21 -29 -25 -52 -5 -31 -13 -44 -31 -53 -14 -6 -25
-14 -25 -18 0 -15 22 -70 28 -70 4 1 22 21 40 45 18 25 39 45 47 45 23 0 35
101 15 126 -7 7 -9 18 -6 23 4 5 2 12 -3 16 -14 8 -2 35 15 35 8 0 14 5 14 11
0 6 -7 8 -16 5 -9 -3 -23 -6 -32 -6 -9 0 -25 -14 -34 -30 -18 -32 -38 -40 -38
-15 0 8 -4 15 -10 15 -5 0 -10 -4 -10 -10 0 -5 -13 -10 -28 -10 -38 0 -45 -9
-29 -34 16 -24 20 -123 6 -131 -5 -4 -9 -15 -9 -26 0 -10 -7 -19 -15 -19 -11
0 -13 7 -9 28 5 23 1 32 -20 46 -15 9 -30 15 -34 12 -4 -2 -12 7 -19 20 l-11
24 28 -20 c32 -23 40 -25 40 -9 0 6 10 20 23 31 15 13 18 21 10 24 -7 3 -13
11 -13 17 0 22 -16 38 -42 42 -19 4 -33 -3 -59 -30 -31 -31 -35 -33 -51 -18
-16 15 -18 15 -18 0 0 -9 -9 -18 -20 -22 -11 -3 -19 -11 -17 -17 1 -5 -12 -12
-29 -14 -28 -3 -31 -1 -31 22 0 14 8 29 18 35 11 5 19 16 19 23 0 17 35 27 48
14 10 -10 62 0 62 12 0 4 -13 6 -29 4 -21 -2 -30 1 -33 14 -8 28 -47 25 -59
-5 -9 -25 -10 -25 -24 -7 -10 14 -17 16 -25 8 -8 -8 -7 -14 5 -24 17 -14 20
-50 4 -50 -6 0 -9 -7 -5 -15 3 -8 1 -15 -3 -15 -5 0 -16 -3 -24 -6 -26 -10
-28 26 -2 51 23 24 23 25 5 35 -10 5 -24 26 -30 45 -11 35 -34 47 -43 23 -3
-8 -8 -6 -12 7 -5 11 -17 32 -27 47 -11 17 -15 29 -8 33 5 3 10 24 10 46 0 32
-3 39 -20 39 -59 0 -80 36 -68 115 4 26 27 44 56 45 34 0 26 14 -18 34 -22 10
-38 21 -35 26 3 5 0 12 -6 15 -6 4 -8 18 -5 30 4 15 -2 37 -15 59 -11 19 -18
40 -14 46 4 6 8 26 11 44 4 31 1 35 -27 45 -28 10 -34 8 -55 -14 -20 -22 -26
-24 -44 -13 -11 7 -20 16 -20 20 0 13 61 98 71 98 5 0 21 18 35 40 l27 40 -19
38 c-10 20 -32 49 -48 63 -28 25 -29 27 -13 50 10 13 17 29 17 36 0 7 9 22 20
33 11 11 20 29 20 40 0 29 -44 54 -81 46 -17 -3 -38 0 -50 7 -17 10 -22 9 -33
-5 -20 -27 -34 -22 -41 15 -11 51 -32 67 -86 67 -38 0 -51 -4 -59 -20z m38
-980 c-11 -18 -28 -27 -28 -16 0 16 14 36 26 36 12 0 12 -4 2 -20z m-705 -49
c16 -6 50 -11 76 -11 63 0 92 -27 71 -65 -8 -14 -27 -29 -44 -33 -17 -5 -31
-15 -31 -23 -1 -8 -6 -23 -13 -34 -10 -17 -11 -18 -12 -3 0 26 -96 98 -131 98
-21 0 -32 7 -44 30 -27 52 -22 59 43 55 31 -1 70 -8 85 -14z m786 -2 c-16 -10
-23 -4 -14 10 3 6 11 8 17 5 6 -4 5 -9 -3 -15z m48 15 c-3 -3 -12 -4 -19 -1
-8 3 -5 6 6 6 11 1 17 -2 13 -5z m-495 -76 c-6 -6 -12 -4 -16 7 -3 9 -2 13 4
10 6 -3 10 0 11 7 0 10 2 10 6 0 3 -8 1 -18 -5 -24z m422 17 c-4 -8 -13 -15
-22 -15 -8 0 -30 -11 -49 -26 -18 -14 -33 -20 -33 -15 0 6 5 11 10 11 6 0 10
7 10 15 0 8 9 15 20 15 11 0 20 4 20 10 0 5 6 7 14 4 8 -3 17 -1 21 5 9 16 15
13 9 -4z m-97 -11 c-3 -3 -12 -4 -19 -1 -8 3 -5 6 6 6 11 1 17 -2 13 -5z m83
-55 c-7 -12 -17 -18 -27 -15 -8 3 -19 6 -25 6 -6 0 -6 6 2 15 7 8 23 15 37 15
21 0 22 -2 13 -21z m-428 -11 c-7 -7 -12 -8 -12 -2 0 14 12 26 19 19 2 -3 -1
-11 -7 -17z m638 7 c0 -8 -4 -15 -10 -15 -5 0 -10 7 -10 15 0 8 5 15 10 15 6
0 10 -7 10 -15z m-230 -40 c0 -7 -8 -19 -17 -24 -17 -10 -17 -10 -1 -11 10 0
23 10 29 22 8 14 14 18 17 10 2 -6 12 -12 23 -12 25 0 24 -20 -1 -27 -12 -3
-19 -11 -17 -17 6 -16 40 -8 54 12 39 55 38 55 39 17 0 -27 -3 -35 -17 -35
-10 0 -21 -5 -24 -11 -4 -6 -12 -8 -19 -6 -7 3 -21 -8 -32 -24 -12 -19 -25
-28 -36 -25 -15 3 -18 -2 -18 -29 0 -43 9 -65 26 -65 8 0 14 10 14 25 0 14 -4
25 -10 25 -5 0 -10 7 -10 15 0 8 6 12 14 9 7 -3 16 2 20 11 4 10 12 15 22 11
9 -4 25 5 40 22 22 25 25 26 38 10 7 -10 21 -18 32 -18 17 0 17 1 -1 14 -17
12 -15 13 24 12 23 0 37 -2 31 -4 -5 -2 -10 -9 -10 -15 0 -7 -9 -18 -20 -25
-11 -7 -20 -18 -20 -25 0 -7 -10 -17 -22 -22 -29 -13 -35 -35 -9 -35 12 0 21
4 21 10 0 5 12 15 26 23 14 7 31 24 37 38 16 30 38 35 66 12 19 -16 20 -22 10
-53 -6 -19 -15 -42 -19 -51 -4 -8 -6 -26 -3 -40 3 -19 -3 -30 -28 -48 -29 -22
-34 -23 -43 -9 -8 14 -12 13 -23 -10 -16 -31 -3 -45 40 -39 17 2 27 -1 27 -10
0 -7 -11 -13 -24 -13 -14 0 -28 -5 -31 -10 -5 -8 -12 -7 -22 2 -12 10 -18 9
-29 -6 -12 -17 -14 -15 -20 23 -8 47 -18 58 -39 41 -19 -16 -19 -30 -1 -30 8
0 18 -5 21 -10 4 -7 -3 -8 -22 -4 -33 8 -54 24 -32 24 7 1 0 7 -18 15 -25 10
-30 18 -26 34 6 23 3 24 -21 15 -9 -3 -13 -10 -10 -16 3 -5 -4 -20 -17 -34
-22 -24 -38 -71 -20 -60 5 3 12 -1 15 -10 9 -23 8 -27 -8 -21 -8 3 -17 1 -20
-6 -8 -20 -27 15 -21 40 6 25 -12 40 -28 24 -9 -9 -8 -16 1 -31 17 -28 14 -49
-4 -25 -8 11 -14 29 -12 40 1 11 -5 31 -15 45 -19 27 -22 40 -8 40 5 0 11 -9
14 -20 6 -22 27 -28 27 -7 0 7 16 31 35 53 19 21 35 46 35 55 0 9 3 19 7 23 4
3 8 15 10 25 2 14 -4 18 -26 17 -24 -1 -28 -5 -27 -33 1 -18 7 -35 15 -38 11
-4 10 -10 -7 -25 -20 -19 -52 -18 -52 2 0 5 4 7 9 4 12 -8 23 23 16 44 -3 10
-16 20 -29 22 -34 7 -50 -25 -51 -104 -1 -38 -7 -73 -14 -82 -14 -16 -7 -34
20 -54 21 -15 23 -92 3 -92 -9 0 -10 9 -3 32 12 43 12 48 -5 48 -18 0 -76 49
-60 50 14 0 44 61 44 89 0 12 -6 21 -15 21 -8 0 -15 4 -15 9 0 5 7 14 15 21 8
7 15 17 15 23 0 6 7 19 16 29 13 14 14 21 5 32 -10 12 -5 18 29 36 31 16 39
25 31 33 -6 6 -11 18 -11 27 0 12 2 12 9 2 6 -10 10 -5 14 17 7 33 27 40 46
17 9 -11 9 -15 -1 -19 -8 -3 -8 -6 -2 -6 6 -1 17 5 23 13 9 10 6 19 -13 37
-30 29 -25 39 20 39 23 0 34 -5 34 -15z m-264 -47 c4 -7 3 -8 -4 -4 -7 4 -12
2 -12 -3 0 -6 -7 -11 -15 -11 -8 0 -15 7 -15 15 0 18 36 20 46 3z m788 -39
c-2 -5 -13 -1 -22 9 -12 11 -14 20 -8 24 12 9 38 -20 30 -33z m-688 -21 c-13
-18 -16 -19 -16 -5 0 9 5 17 10 17 6 0 11 10 11 23 1 16 3 17 6 5 2 -10 -3
-28 -11 -40z m1101 17 c-4 -8 -11 -15 -17 -15 -7 0 -7 6 0 21 13 23 26 19 17
-6z m-1210 -28 c4 -7 0 -8 -11 -4 -10 4 -22 7 -27 7 -5 0 -9 4 -9 9 0 12 38 2
47 -12z m73 -23 c0 -8 -4 -12 -10 -9 -5 3 -10 10 -10 16 0 5 5 9 10 9 6 0 10
-7 10 -16z m1250 -4 c0 -10 -9 -24 -20 -30 -23 -12 -24 -10 -8 25 13 30 28 33
28 5z m-497 -46 l22 -7 -23 -8 c-16 -6 -22 -16 -22 -39 0 -34 -14 -39 -29 -11
-8 14 -7 22 4 31 19 16 19 40 0 40 -21 0 -19 18 3 22 9 2 18 -2 20 -9 2 -7 13
-15 25 -19z m-843 17 c0 -6 -4 -12 -9 -15 -11 -7 -21 -56 -11 -56 4 0 10 -14
12 -30 3 -22 1 -29 -8 -26 -14 6 -64 -48 -64 -69 0 -7 10 -15 22 -19 18 -4 20
-8 10 -18 -6 -6 -12 -21 -12 -31 0 -16 -3 -17 -15 -7 -13 11 -15 8 -15 -18 0
-17 4 -33 9 -36 13 -8 1 -56 -15 -56 -15 0 -44 38 -44 59 0 7 7 19 15 25 13 9
14 20 6 61 -5 27 -7 53 -5 57 3 5 1 8 -5 8 -5 0 -11 -5 -13 -12 -8 -23 -28 4
-28 38 0 41 7 43 36 7 l23 -28 21 21 c18 18 20 25 11 42 -16 31 -14 41 13 48
15 3 29 17 35 35 9 27 31 41 31 20z m-120 -60 c0 -11 5 -23 10 -26 15 -9 12
-25 -4 -25 -15 0 -39 54 -29 64 12 12 23 5 23 -13z m157 5 c-3 -7 0 -19 6 -25
9 -9 8 -11 -5 -6 -10 4 -18 9 -18 10 0 9 13 35 17 35 3 0 3 -6 0 -14z m123
-12 c0 -8 -4 -14 -10 -14 -5 0 -10 9 -10 21 0 11 5 17 10 14 6 -3 10 -13 10
-21z m567 20 c-3 -3 -12 -4 -19 -1 -8 3 -5 6 6 6 11 1 17 -2 13 -5z m-127 -24
c0 -5 -4 -10 -10 -10 -5 0 -10 5 -10 10 0 6 5 10 10 10 6 0 10 -4 10 -10z
m154 -61 c-7 -12 -44 -12 -44 0 0 5 6 11 13 14 17 6 38 -3 31 -14z m92 7 c22
-7 45 -11 52 -9 6 3 12 -2 12 -11 0 -9 6 -16 14 -16 18 0 28 -67 13 -91 -9
-15 -8 -22 7 -36 10 -10 16 -13 12 -6 -9 16 4 45 19 39 7 -2 22 2 34 11 29 19
11 46 -25 37 -15 -4 -24 -2 -24 5 0 12 23 14 69 5 24 -5 31 -12 31 -30 0 -18
5 -23 21 -21 12 1 24 -4 26 -10 5 -13 -26 -18 -74 -14 -13 1 -23 -3 -23 -8 0
-16 -43 -52 -60 -50 -26 3 -50 -12 -50 -32 0 -21 -15 -25 -26 -8 -3 6 6 23 20
38 19 20 22 28 11 28 -8 0 -15 -6 -15 -14 0 -24 -37 -15 -42 11 -5 25 12 56
31 56 6 0 11 5 11 10 0 13 -13 13 -27 -1 -9 -9 -16 -8 -27 4 -19 19 -5 31 24
22 12 -4 20 -2 20 5 0 6 5 8 10 5 12 -7 12 2 0 30 -7 18 -8 19 -15 3 -4 -10
-14 -18 -22 -18 -8 0 -11 5 -8 10 3 6 2 10 -3 10 -5 0 -12 -9 -15 -20 -7 -27
-21 -25 -35 5 -15 33 -15 35 3 35 8 0 15 5 15 10 0 6 -9 10 -20 10 -11 0 -20
5 -20 10 0 14 30 12 76 -4z m-802 -71 l6 -30 -15 25 c-8 14 -14 34 -14 45 0
16 1 17 8 5 5 -8 11 -28 15 -45z m1021 35 c-3 -5 -12 -10 -18 -10 -7 0 -6 4 3
10 19 12 23 12 15 0z m-485 -9 c0 -6 -9 -9 -19 -8 -11 0 -17 5 -15 9 7 11 34
10 34 -1z m147 -42 c-43 -21 -49 -13 -12 16 21 18 31 21 37 12 5 -8 -4 -18
-25 -28z m473 11 c0 -5 -7 -10 -15 -10 -8 0 -15 5 -15 10 0 6 7 10 15 10 8 0
15 -4 15 -10z m-376 -62 c-3 -5 -12 -4 -19 2 -9 8 -14 8 -17 0 -2 -6 -21 -12
-43 -15 -22 -2 -32 -2 -22 1 9 3 17 10 17 15 0 6 8 8 19 4 13 -4 20 0 24 15 5
20 6 20 26 4 11 -10 18 -21 15 -26z m9 -61 c25 -9 21 -32 -8 -51 -33 -22 -24
-35 20 -32 40 4 85 30 85 51 0 8 5 15 10 15 13 0 13 -13 -2 -28 -8 -8 -5 -16
13 -31 13 -11 30 -20 37 -21 15 0 16 -22 0 -38 -16 -16 -28 -15 -28 3 0 8 -4
15 -10 15 -5 0 -10 -7 -10 -15 0 -9 -6 -18 -14 -21 -8 -3 -14 -14 -13 -24 1
-19 2 -19 20 1 10 11 22 17 26 14 5 -2 14 2 21 10 14 17 50 20 50 4 0 -6 -9
-13 -20 -16 -11 -3 -20 -7 -20 -10 0 -14 32 -33 56 -33 33 0 29 -7 -9 -14 -14
-2 -32 -8 -38 -12 -8 -5 -9 -3 -4 6 4 7 2 16 -6 20 -8 6 -16 1 -24 -13 -16
-32 -53 -34 -64 -3 -7 17 -15 23 -29 20 -21 -6 -47 19 -37 36 3 5 13 10 21 10
8 0 14 5 14 10 0 15 -36 12 -50 -5 -12 -14 -40 -21 -40 -10 0 4 7 20 15 38 10
19 11 26 3 16 -7 -9 -25 -19 -40 -23 -43 -10 -36 25 13 79 41 45 48 75 9 40
-29 -27 -37 -10 -9 19 19 20 26 23 34 13 6 -7 18 -16 28 -20z m-763 -19 c0
-17 -3 -18 -15 -8 -8 7 -15 21 -15 32 0 17 3 18 15 8 8 -7 15 -21 15 -32z
m157 19 c19 -11 20 -14 8 -31 -18 -25 -45 -14 -45 19 0 28 5 30 37 12z m873
-37 c0 -5 -4 -10 -10 -10 -5 0 -10 5 -10 10 0 6 5 10 10 10 6 0 10 -4 10 -10z
m40 -10 c0 -5 -7 -10 -16 -10 -8 0 -12 5 -9 10 3 6 10 10 16 10 5 0 9 -4 9
-10z m-510 -35 c0 -24 -5 -35 -15 -35 -17 0 -20 23 -5 51 15 27 20 24 20 -16z
m444 4 c-7 -12 -67 -4 -72 9 -4 13 49 21 65 9 7 -5 10 -13 7 -18z m106 11 c0
-5 -7 -10 -15 -10 -8 0 -15 5 -15 10 0 6 7 10 15 10 8 0 15 -4 15 -10z m60
-16 c0 -10 -31 -36 -37 -31 -10 10 6 37 22 37 8 0 15 -3 15 -6z m-135 -14 c3
-5 2 -10 -4 -10 -5 0 -13 5 -16 10 -3 6 -2 10 4 10 5 0 13 -4 16 -10z m185 -5
c0 -8 -4 -15 -10 -15 -5 0 -10 7 -10 15 0 8 5 15 10 15 6 0 10 -7 10 -15z
m-125 -25 c3 -5 1 -10 -4 -10 -6 0 -11 5 -11 10 0 6 2 10 4 10 3 0 8 -4 11
-10z m-109 -27 c-10 -10 -19 5 -10 18 6 11 8 11 12 0 2 -7 1 -15 -2 -18z
m-604 8 c-11 -6 -10 -12 5 -26 13 -14 14 -20 5 -23 -10 -3 -10 -7 -1 -18 13
-16 6 -30 -10 -19 -6 3 -11 22 -11 41 0 37 -18 45 -40 19 -9 -10 -9 -15 -1
-15 6 0 11 -7 11 -15 0 -8 -4 -15 -10 -15 -5 0 -14 -9 -20 -21 -9 -16 -8 -24
4 -38 20 -22 21 -41 2 -41 -8 0 -17 -7 -20 -16 -5 -13 1 -15 31 -12 31 2 38
-1 41 -16 4 -17 0 -18 -34 -13 -21 4 -43 2 -50 -4 -16 -13 -37 -2 -30 16 3 8
-2 19 -10 25 -8 7 -14 18 -14 25 0 22 -31 27 -45 8 -11 -15 -10 -22 6 -44 10
-15 19 -32 19 -37 0 -18 22 -25 31 -11 7 12 9 12 9 0 0 -8 7 -22 16 -32 15
-17 14 -17 -21 -6 -25 7 -40 20 -47 36 -5 14 -16 33 -24 43 -17 18 -23 115
-10 137 7 10 17 5 42 -23 19 -21 34 -40 34 -44 0 -16 38 -10 43 7 5 22 -15 51
-37 51 -16 0 -16 2 1 25 10 13 28 25 41 25 12 0 22 3 22 8 0 10 40 29 65 31
14 0 16 -2 7 -8z m307 -27 c2 -2 2 -7 -2 -10 -3 -3 -16 2 -29 11 l-23 17 25
-7 c14 -4 27 -9 29 -11z m-229 -66 c0 -18 -27 11 -33 35 -6 22 -6 22 14 -2 10
-13 19 -28 19 -33z m235 32 c3 -5 1 -10 -4 -10 -6 0 -11 5 -11 10 0 6 2 10 4
10 3 0 8 -4 11 -10z m-335 -40 c10 0 20 -10 24 -22 6 -21 7 -22 19 -6 14 18
47 14 111 -11 16 -6 37 -9 48 -5 10 3 30 -1 43 -10 13 -9 33 -16 45 -16 11 0
20 -5 20 -11 0 -6 7 -9 15 -5 17 6 19 -2 6 -23 -7 -11 -11 -9 -20 8 -15 27
-31 18 -31 -16 0 -20 4 -24 20 -20 13 3 20 0 20 -9 0 -8 -6 -14 -12 -13 -7 1
-26 -3 -41 -9 -16 -7 -32 -12 -37 -12 -5 0 -12 -9 -15 -21 -8 -23 -31 -20 -27
5 2 9 -4 16 -12 16 -10 0 -12 -7 -8 -22 5 -23 5 -23 -16 -4 -16 14 -30 17 -55
12 -31 -6 -35 -4 -39 18 -3 14 0 30 6 36 7 7 -1 19 -27 41 -32 27 -37 36 -32
59 5 23 3 28 -12 26 -10 0 -18 7 -20 19 -1 11 0 14 3 8 3 -7 14 -13 24 -13z
m166 0 c8 0 14 -5 14 -11 0 -12 -40 -2 -55 14 -7 7 -4 8 8 3 10 -3 25 -6 33
-6z m144 -15 c14 -19 14 -19 -2 -6 -10 7 -18 18 -18 24 0 6 1 8 3 6 1 -2 9
-13 17 -24z m291 -16 c-9 -22 -10 -22 -10 -3 -1 11 2 24 6 27 12 12 14 0 4
-24z m494 21 c3 -5 1 -10 -4 -10 -6 0 -11 5 -11 10 0 6 2 10 4 10 3 0 8 -4 11
-10z m-515 -22 c-1 -15 -24 -48 -34 -48 -3 0 -6 7 -6 15 0 8 5 15 10 15 6 0
10 7 10 15 0 8 5 15 10 15 6 0 10 -6 10 -12z m199 -29 c-19 -12 -24 -2 -8 17
9 11 14 13 17 4 3 -7 -2 -16 -9 -21z m-919 -24 c10 -12 10 -15 -4 -15 -9 0
-16 7 -16 15 0 8 2 15 4 15 2 0 9 -7 16 -15z m1305 5 c3 -5 1 -10 -4 -10 -6 0
-11 5 -11 10 0 6 2 10 4 10 3 0 8 -4 11 -10z m-1125 -60 c0 -5 -8 -14 -17 -19
-15 -9 -15 -12 -4 -20 10 -6 11 -13 3 -27 -9 -16 -11 -13 -17 18 -4 20 -4 41
0 47 8 14 35 14 35 1z m-887 -7 c8 -7 -11 -33 -24 -33 -5 0 -9 9 -9 20 0 19
20 27 33 13z m627 -15 c0 -16 -3 -19 -11 -11 -6 6 -8 16 -5 22 11 17 16 13 16
-11z m200 7 c0 -8 -4 -15 -9 -15 -5 0 -11 7 -15 15 -3 9 0 15 9 15 8 0 15 -7
15 -15z m-100 -50 c11 -13 10 -14 -4 -9 -9 3 -16 10 -16 15 0 13 6 11 20 -6z
m80 0 c0 -8 -2 -15 -4 -15 -2 0 -6 7 -10 15 -3 8 -1 15 4 15 6 0 10 -7 10 -15z
m324 -10 c-4 -8 -10 -15 -15 -15 -4 0 -6 7 -3 15 4 8 10 15 15 15 4 0 6 -7 3
-15z m246 -19 c0 -8 -7 -16 -15 -20 -10 -4 -15 1 -15 14 0 11 7 20 15 20 8 0
15 -6 15 -14z m-260 -25 c0 -5 -22 -33 -50 -62 -41 -44 -52 -51 -60 -39 -12
19 -13 33 -1 26 5 -3 29 14 52 38 44 45 59 54 59 37z m115 -116 c-30 -29 -35
-30 -35 -11 0 8 9 17 19 21 11 3 22 13 26 23 5 12 9 13 12 4 3 -7 -7 -24 -22
-37z m63 2 c2 -11 -2 -14 -17 -10 -22 5 -26 14 -14 27 10 10 28 1 31 -17z
m-267 -267 c15 0 29 -7 33 -15 8 -22 26 -18 26 7 0 20 1 20 19 4 11 -10 30
-16 44 -14 48 6 75 -45 42 -78 -8 -9 -15 -24 -15 -34 0 -11 -9 -24 -20 -30
-10 -6 -27 -26 -36 -46 -15 -31 -21 -35 -43 -30 -14 4 -44 9 -66 12 -22 3 -50
10 -62 16 -17 8 -30 8 -47 0 -22 -10 -30 -7 -66 23 -23 19 -50 35 -60 35 -28
0 -43 25 -30 49 6 12 13 21 16 21 13 0 84 -44 84 -52 0 -14 30 -9 36 7 7 17
40 20 49 5 15 -24 27 -9 21 25 -4 19 -3 35 2 35 14 0 35 57 26 72 -5 10 -4 11
7 1 7 -7 25 -13 40 -13z"/>
<path d="M977 2053 c-10 -3 -16 -10 -14 -16 6 -20 31 -18 45 3 13 21 9 23 -31
13z"/>
<path d="M1310 1990 c0 -24 15 -27 24 -4 9 22 8 24 -9 24 -8 0 -15 -9 -15 -20z"/>
<path d="M1122 1931 c7 -9 13 -18 14 -19 1 -2 7 5 12 15 8 15 6 18 -14 19 -21
2 -23 0 -12 -15z"/>
<path d="M1090 1920 c0 -5 5 -10 10 -10 6 0 10 5 10 10 0 6 -4 10 -10 10 -5 0
-10 -4 -10 -10z"/>
<path d="M1227 1913 c-12 -11 -8 -23 8 -23 8 0 15 7 15 15 0 16 -12 20 -23 8z"/>
<path d="M1183 1903 c-15 -5 -17 -23 -4 -23 5 0 11 7 15 15 3 8 4 15 3 14 -1
0 -8 -3 -14 -6z"/>
<path d="M1112 1859 c2 -7 10 -15 17 -17 8 -3 12 1 9 9 -2 7 -10 15 -17 17 -8
3 -12 -1 -9 -9z"/>
<path d="M720 1895 c0 -8 5 -15 10 -15 6 0 10 7 10 15 0 8 -4 15 -10 15 -5 0
-10 -7 -10 -15z"/>
<path d="M1580 1851 c0 -5 5 -13 10 -16 6 -3 10 -2 10 4 0 5 -4 13 -10 16 -5
3 -10 2 -10 -4z"/>
<path d="M1675 1770 c4 -6 11 -8 16 -5 14 9 11 15 -7 15 -8 0 -12 -5 -9 -10z"/>
<path d="M1508 1563 c7 -3 16 -2 19 1 4 3 -2 6 -13 5 -11 0 -14 -3 -6 -6z"/>
<path d="M1234 1358 c-19 -21 -19 -21 19 -15 36 6 37 5 37 -23 0 -16 -4 -32
-10 -35 -20 -12 -10 -25 19 -25 16 0 32 -6 34 -12 4 -9 6 -8 6 3 1 8 -3 19 -8
25 -13 13 -18 53 -6 51 6 -1 9 -8 9 -14 -1 -7 7 -13 17 -13 11 0 19 -6 19 -14
0 -18 16 -29 30 -21 6 4 4 15 -5 29 -9 13 -14 30 -13 37 2 7 -6 15 -17 17 -11
2 -26 9 -33 14 -25 21 -79 18 -98 -4z"/>
<path d="M1398 1342 c2 -18 8 -32 13 -32 13 0 11 24 -4 45 -13 16 -14 15 -9
-13z"/>
<path d="M1425 1350 c-3 -5 -1 -10 4 -10 6 0 11 5 11 10 0 6 -2 10 -4 10 -3 0
-8 -4 -11 -10z"/>
<path d="M1430 1285 c0 -8 5 -15 10 -15 6 0 10 7 10 15 0 8 -4 15 -10 15 -5 0
-10 -7 -10 -15z"/>
<path d="M2573 3169 c-25 -7 -34 -17 -45 -52 l-13 -42 -84 -7 c-66 -5 -89 -4
-105 8 -11 7 -33 14 -48 14 -33 0 -41 -22 -33 -93 4 -42 2 -57 -14 -77 l-19
-24 -21 24 -20 25 -31 -31 c-35 -34 -33 -64 5 -64 21 0 35 -24 39 -65 3 -31
83 -84 106 -70 4 3 10 -13 14 -35 7 -43 23 -60 37 -39 6 10 9 2 9 -23 0 -36 1
-37 29 -32 23 5 29 2 34 -15 7 -28 42 -27 61 1 20 28 20 38 1 38 -8 0 -26 5
-40 12 -27 12 -35 48 -10 48 18 0 18 5 5 30 -8 15 -17 18 -38 14 -19 -4 -33 0
-42 11 -12 15 -12 19 5 31 10 8 25 14 32 14 7 0 13 8 13 18 0 19 29 52 45 52
5 0 16 7 26 16 17 15 20 15 46 -3 50 -35 60 -34 93 4 17 19 35 46 40 59 11 28
58 43 71 23 16 -25 10 -67 -14 -96 -12 -15 -35 -54 -51 -85 -16 -32 -32 -58
-37 -58 -19 0 -8 -37 22 -73 31 -38 63 -48 72 -22 4 8 21 18 38 23 21 5 39 19
49 37 18 33 53 40 58 13 2 -9 -15 -37 -37 -61 -23 -24 -41 -48 -41 -52 0 -5
-8 -17 -17 -27 -15 -17 -15 -21 4 -61 12 -23 26 -60 33 -82 7 -22 16 -47 21
-55 4 -8 18 -33 29 -55 29 -53 49 -75 70 -75 50 0 20 -96 -38 -122 -70 -32
-69 -32 -86 4 -9 19 -15 48 -14 64 2 16 -1 30 -7 31 -14 2 -27 45 -16 56 5 5
5 21 0 40 -12 42 -11 55 2 37 8 -11 9 -5 4 25 -4 22 -10 44 -14 48 -14 15 -58
-4 -81 -34 -20 -28 -23 -29 -35 -13 -11 15 -16 16 -44 4 -17 -7 -47 -10 -66
-7 -27 4 -35 2 -35 -9 0 -11 -9 -10 -40 8 -22 13 -40 29 -40 36 0 6 -9 12 -21
12 -23 0 -99 41 -99 54 0 4 8 5 18 1 31 -12 72 -16 72 -7 0 27 -77 51 -86 27
-4 -8 -13 -15 -22 -15 -12 0 -13 -3 -4 -12 16 -16 15 -28 -3 -28 -8 0 -15 6
-15 14 0 12 -20 26 -36 26 -9 0 -4 -39 6 -45 18 -11 10 -25 -15 -25 -20 0 -25
5 -25 25 0 14 -7 28 -15 31 -24 10 -38 43 -26 58 12 14 5 46 -9 46 -5 0 -12
-4 -15 -10 -10 -17 -25 -11 -25 9 0 25 -27 52 -44 45 -8 -3 -17 -1 -21 5 -3 7
0 8 10 5 11 -4 14 -2 9 9 -3 9 -12 18 -20 21 -8 3 -14 19 -14 36 0 33 -5 35
-44 20 -16 -6 -28 -20 -32 -37 -4 -15 -15 -39 -24 -53 -9 -14 -19 -33 -23 -42
-4 -11 -13 -15 -26 -11 -23 6 -28 -6 -10 -24 12 -12 3 -37 -11 -28 -5 3 -12 0
-16 -6 -4 -8 -3 -9 4 -5 7 4 12 3 12 -3 0 -16 -21 -24 -33 -12 -14 14 -67 15
-67 1 0 -10 42 -32 64 -34 19 -2 31 -35 19 -54 -6 -11 -8 -24 -3 -33 5 -8 4
-19 -2 -26 -14 -17 -28 -16 -28 2 0 8 -4 15 -10 15 -15 0 -12 -12 10 -40 16
-21 22 -23 38 -13 16 9 24 8 42 -4 19 -13 24 -13 31 -2 5 8 9 22 9 32 0 9 6
17 14 17 11 0 12 -10 5 -46 -5 -25 -6 -50 -3 -55 3 -5 -1 -10 -8 -10 -40 -4
-42 -7 -33 -48 5 -22 10 -28 26 -24 25 7 25 23 -2 23 -11 0 -18 4 -15 9 3 5
18 9 33 9 30 0 54 26 46 50 -4 14 -3 15 5 2 9 -12 14 -12 31 5 12 10 23 16 26
14 7 -8 -7 -79 -16 -79 -5 0 -9 -7 -9 -15 0 -22 13 -18 40 10 13 14 29 25 37
25 7 0 13 11 13 25 0 27 -14 33 -27 11 -5 -9 -8 4 -8 34 0 27 -3 52 -7 56 -11
10 -38 -16 -38 -37 0 -12 -7 -19 -20 -19 -27 0 -25 10 10 48 35 38 39 56 10
47 -11 -4 -20 -2 -20 4 0 6 10 11 23 11 12 0 32 3 45 6 19 5 21 3 16 -12 -6
-16 -5 -17 7 -6 18 17 66 15 72 -2 4 -11 16 -13 44 -10 69 10 83 14 83 29 0 8
5 15 10 15 6 0 10 -5 10 -11 0 -6 16 -26 35 -45 20 -19 33 -39 30 -44 -4 -6
-12 -4 -21 5 -17 17 -24 18 -42 7 -20 -13 -3 -41 34 -57 19 -8 33 -20 32 -27
-2 -8 6 -12 20 -11 12 2 22 -2 22 -7 0 -6 -11 -10 -24 -10 -32 0 -40 -24 -15
-46 16 -15 23 -15 43 -4 22 11 28 10 52 -9 22 -17 35 -20 73 -15 51 6 101 -8
101 -30 0 -20 26 -39 55 -38 33 0 36 -8 25 -47 -10 -37 3 -67 32 -77 26 -8 22
-16 -16 -42 -28 -19 -38 -22 -56 -12 -16 8 -30 8 -55 0 -35 -12 -60 -6 -50 11
13 20 -7 30 -25 14 -18 -16 -19 -15 -28 16 -6 27 -14 34 -33 35 -47 1 -50 3
-43 28 3 13 1 27 -5 30 -6 4 -11 0 -11 -9 0 -9 -4 -13 -10 -10 -5 3 -10 -3
-10 -14 0 -19 -2 -20 -20 -9 -13 9 -18 19 -14 32 4 13 2 17 -7 14 -8 -3 -13
-16 -11 -32 3 -24 1 -25 -23 -14 -30 14 -32 28 -5 35 21 6 26 18 11 27 -5 3
-23 -8 -41 -24 -26 -25 -29 -30 -14 -30 11 0 28 -7 38 -15 16 -12 18 -18 8
-40 -7 -14 -24 -31 -39 -37 -16 -7 -30 -13 -32 -15 -5 -3 42 -42 51 -43 4 0 5
7 2 15 -7 18 22 31 39 17 6 -6 23 -12 37 -15 22 -4 21 -4 -6 -6 -38 -1 -59
-22 -42 -39 7 -7 17 -12 24 -12 6 0 15 -7 18 -15 5 -14 9 -14 32 2 l27 17 -12
-23 c-14 -25 -7 -86 9 -96 6 -4 14 5 19 19 8 18 15 23 30 19 25 -6 27 -19 5
-31 -14 -8 -14 -10 1 -22 13 -11 18 -10 33 4 18 15 52 22 52 10 0 -10 -44 -43
-57 -44 -18 0 -16 -17 3 -24 10 -4 14 -12 9 -24 -5 -14 -4 -15 6 -4 7 6 21 12
31 12 11 0 18 7 18 19 0 11 9 21 22 24 27 7 38 1 38 -22 0 -10 11 -27 24 -40
20 -19 27 -20 49 -10 16 7 27 21 29 39 6 40 -1 50 -34 50 -41 0 -33 6 20 14
29 4 41 3 37 -4 -3 -5 1 -10 9 -10 23 0 29 18 9 28 -22 13 -27 82 -6 82 11 0
13 8 8 31 -5 22 -4 29 4 25 16 -10 26 43 14 75 -9 22 -8 29 4 33 45 17 126
-14 147 -56 8 -17 22 -24 48 -26 32 -3 39 1 52 27 9 16 23 31 32 33 12 2 18
17 21 58 6 69 23 90 77 90 47 0 88 24 84 48 -1 10 1 23 6 30 5 8 2 20 -9 31
-11 13 -14 27 -9 45 5 21 1 33 -18 54 -19 20 -27 42 -31 87 -5 51 -10 63 -33
80 -16 11 -46 36 -68 56 -36 31 -45 35 -68 27 -23 -8 -27 -15 -30 -56 l-3 -47
-59 -6 c-37 -4 -64 -13 -71 -23 -19 -25 -42 -19 -54 15 -6 17 -9 35 -6 39 3 4
-2 13 -10 20 -31 26 -12 70 23 54 21 -9 117 -14 155 -7 17 3 27 11 27 22 0 10
9 26 20 36 16 14 19 26 14 48 -7 32 -38 90 -64 122 -25 30 -50 85 -50 111 0
16 -10 28 -29 38 -16 9 -31 26 -34 38 -4 16 -18 27 -39 33 -36 11 -69 59 -91
134 -22 74 -110 122 -184 100z m304 -605 c7 -19 -20 -49 -36 -40 -12 8 -15 39
-4 49 12 12 33 7 40 -9z m-927 -214 c-8 -5 -19 -10 -25 -10 -5 0 -3 5 5 10 8
5 20 10 25 10 6 0 3 -5 -5 -10z m457 -16 c-3 -3 -12 -4 -19 -1 -8 3 -5 6 6 6
11 1 17 -2 13 -5z m-413 -19 c-4 -8 -13 -15 -22 -15 -13 0 -12 3 4 15 24 18
25 18 18 0z m776 -210 c0 -8 -2 -15 -4 -15 -2 0 -6 7 -10 15 -3 8 -1 15 4 15
6 0 10 -7 10 -15z m-355 -195 c4 -6 -5 -10 -21 -10 -23 0 -25 -2 -14 -15 15
-18 5 -34 -11 -18 -16 16 -1 53 21 53 10 0 22 -4 25 -10z m89 -31 c-27 -11
-34 -10 -34 0 0 11 31 20 44 13 5 -3 1 -9 -10 -13z m-59 -19 c3 -5 1 -10 -4
-10 -6 0 -11 5 -11 10 0 6 2 10 4 10 3 0 8 -4 11 -10z m285 -83 c0 -16 -18 3
-23 25 -6 22 -5 22 8 4 8 -11 15 -24 15 -29z"/>
<path d="M6685 3121 c-17 -10 -47 -23 -66 -30 -20 -6 -53 -30 -73 -52 -30 -33
-41 -40 -59 -34 -12 4 -40 9 -62 12 -34 4 -47 -1 -89 -32 -31 -25 -72 -44
-116 -55 -142 -36 -199 -96 -209 -218 l-6 -65 -210 1 c-157 1 -224 -2 -265
-13 -93 -25 -105 -22 -125 33 -22 56 -117 155 -170 178 -28 12 -44 12 -76 4
-22 -6 -64 -8 -92 -5 -46 6 -56 3 -87 -19 -19 -15 -43 -45 -55 -69 -11 -23
-26 -43 -32 -43 -7 -1 -14 -3 -15 -4 -2 -1 -12 -4 -23 -5 -41 -5 -72 -24 -136
-81 -36 -33 -88 -75 -117 -94 -29 -19 -52 -39 -52 -43 0 -5 -6 -5 -12 -1 -32
20 -184 27 -257 13 -60 -12 -161 -74 -161 -99 0 -9 -5 -21 -12 -28 -19 -19 -3
-23 33 -8 90 37 219 27 298 -22 25 -15 46 -31 47 -37 2 -5 -16 -32 -39 -59
l-44 -49 -44 21 c-130 63 -212 -16 -212 -203 1 -157 45 -221 147 -213 33 3 65
13 83 26 17 12 33 22 36 22 3 0 24 -23 46 -52 l41 -51 -21 -23 c-11 -12 -48
-34 -81 -49 -55 -25 -69 -27 -148 -23 -70 3 -98 9 -138 30 -28 14 -52 24 -55
22 -4 -4 1 -34 17 -113 4 -18 -4 -33 -36 -65 -57 -57 -95 -144 -109 -252 -6
-49 -20 -113 -30 -142 -10 -30 -19 -71 -19 -92 0 -34 -10 -61 -67 -187 -31
-69 -51 -138 -47 -163 12 -78 18 -95 49 -129 35 -38 82 -124 91 -164 15 -68
16 -192 1 -260 -9 -40 -18 -87 -21 -104 l-5 -33 2109 0 2110 0 -3 1123 c-1
617 -5 1132 -9 1144 -4 13 -3 25 3 28 5 4 9 127 9 298 l0 292 -39 40 c-21 22
-57 60 -80 84 l-41 44 -67 -7 c-64 -7 -68 -6 -105 24 -51 42 -96 48 -150 22
-24 -11 -74 -25 -113 -31 -38 -6 -86 -14 -105 -17 -19 -3 -54 -19 -78 -35 -24
-16 -53 -29 -66 -29 -26 0 -56 30 -81 80 -10 19 -27 45 -38 58 -20 21 -26 22
-221 22 -178 0 -205 -2 -231 -19z m-1720 -765 c99 -45 156 -131 174 -261 13
-85 6 -159 -21 -245 -17 -50 -32 -76 -73 -116 -60 -61 -122 -84 -220 -84 -172
0 -285 98 -316 275 -33 190 32 359 163 424 55 28 71 31 152 31 74 0 100 -5
141 -24z m434 -253 c30 -144 58 -260 61 -257 3 3 28 121 55 262 l51 257 97 3
c53 1 97 0 97 -3 0 -4 -41 -162 -92 -351 l-91 -344 -121 0 -121 0 -96 345
c-52 190 -93 348 -90 350 3 3 48 4 100 3 l94 -3 56 -262z m581 -83 l0 -350
-95 0 -95 0 0 350 0 350 95 0 95 0 0 -350z m400 339 c79 -12 169 -51 203 -87
14 -15 36 -49 49 -77 20 -44 23 -66 23 -175 0 -109 -3 -132 -23 -176 -29 -63
-82 -116 -147 -146 -45 -21 -68 -23 -227 -26 l-178 -4 0 351 0 351 118 0 c64
0 146 -5 182 -11z m1325 -28 c91 -41 120 -108 119 -271 0 -94 -5 -126 -23
-171 -40 -105 -129 -178 -276 -229 -59 -20 -59 -20 -69 26 -7 30 -5 31 51 53
124 47 199 119 218 210 l7 33 -22 -22 c-53 -53 -148 -65 -215 -27 -22 13 -52
42 -68 69 -25 41 -29 57 -30 122 0 66 3 81 29 123 55 90 182 128 279 84z
m-405 -84 c0 -52 -3 -202 -7 -335 l-6 -242 -44 0 -43 0 0 280 c0 154 -3 280
-8 280 -4 0 -23 -10 -42 -23 -19 -13 -51 -33 -71 -45 l-37 -22 -21 35 -21 35
48 30 c26 16 72 45 102 64 43 28 65 36 103 36 l47 0 0 -93z m-270 -267 l0 -40
-145 0 -145 0 0 40 0 40 145 0 145 0 0 -40z m-2812 -527 c2 -9 -5 -11 -25 -7
-37 7 -53 -11 -55 -65 -2 -51 11 -65 59 -64 35 1 36 0 18 -13 -22 -17 -26 -17
-58 -5 -51 20 -61 123 -14 156 25 18 68 16 75 -2z m152 7 c27 -14 44 -78 31
-112 -25 -67 -102 -73 -128 -10 -34 83 27 160 97 122z m178 -6 c26 -18 29 -59
5 -72 -15 -9 -15 -13 5 -46 30 -50 8 -56 -23 -6 -30 48 -48 47 -55 -1 l-6 -34
-7 40 c-9 51 -9 120 0 128 12 12 58 7 81 -9z m189 -10 c22 -22 25 -32 20 -72
-8 -75 -58 -103 -111 -61 -21 17 -26 29 -26 67 0 83 64 119 117 66z m137 -36
l35 -63 1 57 c0 31 5 60 10 63 6 4 10 -27 10 -84 0 -53 -4 -91 -10 -91 -5 0
-25 30 -44 68 l-35 67 -1 -62 c0 -34 -4 -65 -10 -68 -6 -4 -10 27 -10 84 0 50
4 91 9 91 5 0 25 -28 45 -62z m210 -16 c14 -42 26 -80 26 -85 0 -15 -19 -6
-25 13 -5 15 -15 20 -40 20 -24 0 -34 -5 -38 -20 -3 -11 -10 -20 -15 -20 -9 0
10 69 43 158 10 27 25 8 49 -66z m97 6 l22 -73 21 70 c19 60 31 81 38 59 4
-15 -47 -154 -58 -154 -7 0 -24 35 -38 78 -29 86 -30 92 -16 92 5 0 19 -33 31
-72z m159 -19 c0 -46 -4 -79 -10 -79 -6 0 -10 35 -10 86 0 54 4 83 10 79 6 -3
10 -42 10 -86z m156 70 c19 -16 18 -56 -3 -67 -15 -9 -15 -13 5 -46 14 -24 17
-36 9 -36 -7 0 -21 16 -31 35 -11 19 -25 35 -33 35 -8 0 -13 -12 -13 -35 0
-19 -4 -35 -10 -35 -6 0 -10 35 -10 86 l0 87 36 -6 c20 -3 42 -11 50 -18z m96
-58 c3 -67 19 -91 52 -78 13 5 16 21 16 76 0 38 5 73 10 76 7 5 10 -19 8 -71
-3 -73 -5 -79 -29 -93 -24 -13 -29 -13 -53 2 -24 16 -26 22 -26 94 0 93 18 88
22 -6z m234 64 c18 -13 16 -14 -21 -12 -32 2 -40 -1 -40 -16 0 -10 15 -25 35
-35 28 -13 36 -24 38 -49 3 -27 -1 -35 -22 -45 -28 -12 -76 2 -76 22 0 7 6 7
20 0 12 -6 30 -8 41 -5 33 11 20 47 -23 68 -41 19 -48 40 -21 69 20 22 43 23
69 3z m266 -15 c20 -24 24 -81 8 -110 -11 -21 -73 -45 -95 -36 -12 4 -15 25
-15 92 l0 87 42 -6 c27 -4 49 -14 60 -27z m98 -55 c0 -50 -4 -85 -10 -85 -6 0
-10 35 -10 85 0 50 4 85 10 85 6 0 10 -35 10 -85z m151 69 c11 -14 9 -15 -23
-9 -26 5 -37 3 -41 -8 -7 -19 3 -31 40 -46 18 -7 35 -21 38 -32 14 -44 -41
-83 -84 -59 -32 17 -25 30 10 17 26 -10 32 -9 44 6 17 24 10 44 -20 51 -28 7
-55 32 -55 51 0 39 65 60 91 29z m159 6 c0 -5 -16 -10 -36 -10 -33 0 -35 -2
-32 -27 2 -23 9 -29 33 -32 l30 -4 -30 -6 c-25 -5 -30 -11 -30 -36 0 -27 4
-31 40 -36 l40 -6 -47 -2 -48 -1 0 85 0 85 40 0 c22 0 40 -4 40 -10z m139 -62
c13 -40 26 -79 28 -85 3 -7 0 -13 -5 -13 -6 0 -14 9 -17 20 -8 25 -75 30 -75
6 0 -15 -18 -31 -26 -24 -4 5 39 139 51 158 13 21 22 8 44 -62z m161 57 c11
-13 8 -14 -20 -9 -22 5 -35 3 -41 -7 -14 -22 -11 -28 25 -43 60 -25 68 -74 16
-96 -21 -9 -34 -9 -49 0 -32 17 -25 30 9 17 24 -9 33 -9 45 4 22 22 9 46 -30
59 -45 15 -58 46 -29 74 20 20 58 21 74 1z m160 5 c0 -5 -16 -10 -36 -10 -33
0 -35 -2 -32 -27 2 -23 9 -29 33 -32 l30 -4 -30 -6 c-25 -5 -30 -11 -30 -36 0
-27 4 -31 40 -36 l40 -6 -47 -2 -48 -1 0 85 0 85 40 0 c22 0 40 -4 40 -10z
m218 -12 c20 -20 14 -52 -18 -88 -16 -19 -29 -38 -30 -42 0 -4 15 -9 33 -11
24 -3 21 -4 -15 -5 -54 -2 -58 5 -24 37 14 13 30 36 37 53 10 24 9 32 -3 45
-12 12 -20 13 -37 4 -20 -11 -29 -3 -14 12 11 11 58 8 71 -5z m151 -1 c31 -38
19 -140 -18 -152 -42 -13 -71 23 -71 88 0 61 57 102 89 64z m121 -67 c0 -47
-4 -80 -10 -80 -6 0 -10 29 -10 66 0 61 -1 65 -20 59 -25 -8 -26 3 -2 21 36
28 42 18 42 -66z m148 68 c34 -34 1 -138 -47 -151 -33 -8 -32 4 1 27 41 27 47
45 13 39 -32 -7 -55 12 -55 46 0 34 17 51 50 51 14 0 31 -5 38 -12z"/>
<path d="M4793 2243 c-35 -7 -70 -58 -84 -120 -24 -118 8 -295 59 -322 30 -16
94 -14 119 4 40 28 58 99 57 220 -1 121 -15 172 -56 199 -28 18 -65 25 -95 19z"/>
<path d="M6272 2018 l3 -213 49 2 c100 3 139 64 139 213 0 151 -42 210 -151
210 l-42 0 2 -212z"/>
<path d="M7549 2255 c-68 -37 -76 -194 -12 -244 48 -39 153 -16 183 39 27 51
-4 185 -48 209 -28 15 -92 13 -123 -4z"/>
<path d="M4302 1438 c-7 -7 -12 -33 -12 -60 0 -46 16 -68 49 -68 21 0 41 33
41 70 0 57 -45 91 -78 58z"/>
<path d="M4490 1420 c0 -25 4 -30 24 -30 28 0 42 26 25 46 -6 8 -20 14 -30 14
-14 0 -19 -7 -19 -30z"/>
<path d="M4661 1441 c-7 -5 -15 -28 -18 -52 -4 -36 -1 -48 16 -63 18 -16 25
-17 46 -8 22 10 25 18 25 60 0 64 -28 89 -69 63z"/>
<path d="M5033 1395 c-11 -34 -10 -35 14 -35 22 0 24 3 18 28 -10 43 -21 45
-32 7z"/>
<path d="M5430 1420 c0 -28 3 -31 28 -28 21 2 27 8 27 28 0 20 -6 26 -27 28
-25 3 -28 0 -28 -28z"/>
<path d="M6020 1385 c0 -63 1 -65 25 -65 47 0 59 97 15 120 -35 19 -40 12 -40
-55z"/>
<path d="M6593 1402 c-11 -41 -10 -42 13 -42 27 0 27 2 10 50 l-13 34 -10 -42z"/>
<path d="M7281 1441 c-7 -5 -15 -26 -18 -48 -9 -71 36 -114 58 -56 19 51 -8
123 -40 104z"/>
<path d="M7540 1435 c-19 -23 -8 -50 20 -50 16 0 26 6 28 18 4 18 -14 47 -28
47 -4 0 -13 -7 -20 -15z"/>
<path d="M1870 2955 c-10 -12 -9 -15 8 -15 11 0 22 7 26 15 3 9 0 15 -8 15 -7
0 -19 -7 -26 -15z"/>
<path d="M1970 2909 c14 -25 33 -33 65 -25 38 10 30 32 -12 40 -62 10 -65 9
-53 -15z"/>
<path d="M990 2794 c0 -8 5 -12 10 -9 6 3 10 10 10 16 0 5 -4 9 -10 9 -5 0
-10 -7 -10 -16z"/>
<path d="M2010 2779 c0 -5 5 -7 10 -4 6 3 10 8 10 11 0 2 -4 4 -10 4 -5 0 -10
-5 -10 -11z"/>
<path d="M1930 2771 c0 -6 5 -13 10 -16 6 -3 10 1 10 9 0 9 -4 16 -10 16 -5 0
-10 -4 -10 -9z"/>
<path d="M1447 2753 c-14 -4 -16 -8 -6 -19 17 -20 39 -17 39 6 0 20 -2 21 -33
13z"/>
<path d="M907 2743 c-12 -11 -8 -23 8 -23 8 0 15 7 15 15 0 16 -12 20 -23 8z"/>
<path d="M1390 2690 c0 -5 7 -10 15 -10 8 0 15 5 15 10 0 6 -7 10 -15 10 -8 0
-15 -4 -15 -10z"/>
<path d="M2150 2680 c0 -5 5 -10 11 -10 5 0 7 5 4 10 -3 6 -8 10 -11 10 -2 0
-4 -4 -4 -10z"/>
<path d="M955 2660 c3 -5 10 -10 16 -10 5 0 9 5 9 10 0 6 -7 10 -16 10 -8 0
-12 -4 -9 -10z"/>
<path d="M1535 2660 c-16 -7 -17 -9 -3 -9 9 -1 20 4 23 9 7 11 7 11 -20 0z"/>
<path d="M2070 2650 c0 -5 5 -10 10 -10 6 0 10 5 10 10 0 6 -4 10 -10 10 -5 0
-10 -4 -10 -10z"/>
<path d="M1440 2639 c0 -5 5 -7 10 -4 6 3 10 8 10 11 0 2 -4 4 -10 4 -5 0 -10
-5 -10 -11z"/>
<path d="M1487 2622 c-74 -15 -77 -16 -64 -36 14 -20 74 -43 85 -32 2 3 -1 12
-8 21 -18 22 -3 18 22 -5 25 -23 41 -22 46 3 2 10 -3 17 -13 17 -9 0 -13 5
-10 11 4 6 13 8 21 5 15 -6 18 3 6 20 -5 7 -30 6 -85 -4z"/>
<path d="M2510 2610 c0 -5 5 -10 10 -10 6 0 10 5 10 10 0 6 -4 10 -10 10 -5 0
-10 -4 -10 -10z"/>
<path d="M884 2589 c-3 -6 -2 -15 4 -21 7 -7 14 -3 21 11 10 17 9 21 -3 21 -8
0 -18 -5 -22 -11z"/>
<path d="M948 2593 c7 -3 16 -2 19 1 4 3 -2 6 -13 5 -11 0 -14 -3 -6 -6z"/>
<path d="M2120 2589 c0 -5 5 -7 10 -4 6 3 10 8 10 11 0 2 -4 4 -10 4 -5 0 -10
-5 -10 -11z"/>
<path d="M2223 2588 c-2 -5 6 -9 19 -10 66 -4 86 -2 78 6 -11 11 -90 14 -97 4z"/>
<path d="M2335 2543 c4 -10 9 -25 12 -34 3 -9 15 -21 27 -27 l23 -10 -21 44
c-12 24 -27 44 -35 44 -9 0 -11 -6 -6 -17z"/>
<path d="M997 2543 c-3 -3 -3 -11 0 -19 3 -8 -1 -14 -10 -14 -18 0 -22 -5 -31
-41 -4 -18 -1 -29 8 -32 8 -3 13 1 12 10 0 9 5 18 13 21 10 3 12 0 8 -12 -4
-9 -2 -16 3 -16 6 0 10 5 10 10 0 15 21 12 40 -5 24 -21 102 -10 98 14 -3 12
-15 16 -56 16 -50 0 -64 7 -42 20 6 3 10 16 10 29 0 18 -6 23 -29 24 -16 0
-31 -2 -34 -5z"/>
<path d="M1610 2540 c0 -5 6 -10 14 -10 7 0 20 -7 27 -17 13 -15 12 -15 -18 0
-42 22 -41 22 -49 -18 -3 -20 -12 -35 -20 -35 -7 0 -11 -6 -8 -14 7 -19 55
-15 76 6 19 19 12 34 -9 17 -10 -9 -13 -8 -13 4 0 10 11 17 28 19 21 2 28 9
30 31 3 24 0 27 -27 27 -17 0 -31 -4 -31 -10z"/>
<path d="M2150 2535 c0 -8 4 -15 9 -15 5 0 14 7 21 15 10 13 9 15 -9 15 -12 0
-21 -6 -21 -15z"/>
<path d="M1497 2524 c-8 -8 1 -24 14 -24 5 0 9 7 9 15 0 15 -12 20 -23 9z"/>
<path d="M2532 2518 c-17 -17 -15 -49 2 -42 18 7 29 35 18 46 -4 4 -13 3 -20
-4z"/>
<path d="M2421 2499 c-15 -25 -1 -40 30 -32 22 6 25 23 7 41 -16 16 -21 15
-37 -9z"/>
<path d="M2400 2430 c0 -5 5 -10 10 -10 6 0 10 5 10 10 0 6 -4 10 -10 10 -5 0
-10 -4 -10 -10z"/>
<path d="M1516 2415 c4 -8 10 -12 15 -9 14 8 10 24 -6 24 -9 0 -12 -6 -9 -15z"/>
<path d="M1765 2420 c4 -6 1 -18 -6 -26 -12 -14 -14 -14 -25 0 -10 14 -13 14
-24 1 -9 -11 -17 -12 -31 -4 -20 10 -28 -4 -9 -16 6 -3 10 -15 10 -25 0 -10 7
-26 16 -34 19 -19 40 -11 24 9 -14 17 -3 38 14 32 14 -6 25 0 44 24 13 17 7
49 -10 49 -5 0 -6 -5 -3 -10z"/>
<path d="M1455 2410 c3 -5 8 -10 11 -10 2 0 4 5 4 10 0 6 -5 10 -11 10 -5 0
-7 -4 -4 -10z"/>
<path d="M1120 2389 c0 -5 5 -7 10 -4 6 3 10 8 10 11 0 2 -4 4 -10 4 -5 0 -10
-5 -10 -11z"/>
<path d="M2440 2390 c0 -5 5 -10 11 -10 5 0 7 5 4 10 -3 6 -8 10 -11 10 -2 0
-4 -4 -4 -10z"/>
<path d="M1495 2380 c-3 -5 -2 -10 4 -10 5 0 13 5 16 10 3 6 2 10 -4 10 -5 0
-13 -4 -16 -10z"/>
<path d="M1630 2371 c0 -6 5 -13 10 -16 6 -3 10 1 10 9 0 9 -4 16 -10 16 -5 0
-10 -4 -10 -9z"/>
<path d="M1560 2347 c0 -19 10 -27 26 -20 11 4 12 9 3 19 -15 18 -29 18 -29 1z"/>
<path d="M2100 2310 c0 -5 5 -10 10 -10 6 0 10 5 10 10 0 6 -4 10 -10 10 -5 0
-10 -4 -10 -10z"/>
<path d="M2237 2313 c-4 -3 -7 -13 -7 -21 0 -13 2 -13 18 0 9 9 23 13 30 11 6
-3 12 0 12 6 0 12 -42 15 -53 4z"/>
<path d="M1598 2279 c-25 -27 -22 -34 11 -37 35 -3 51 16 28 33 -9 7 -14 15
-10 18 3 4 2 7 -3 6 -5 0 -17 -9 -26 -20z"/>
<path d="M2160 2290 c0 -5 7 -10 15 -10 8 0 15 5 15 10 0 6 -7 10 -15 10 -8 0
-15 -4 -15 -10z"/>
<path d="M1677 2274 c-7 -7 32 -74 43 -74 5 0 11 -8 13 -17 4 -14 5 -12 6 5 0
12 -3 22 -9 22 -5 0 -10 8 -10 18 -1 16 -22 52 -32 52 -3 0 -7 -3 -11 -6z"/>
<path d="M1498 2253 c7 -3 16 -2 19 1 4 3 -2 6 -13 5 -11 0 -14 -3 -6 -6z"/>
<path d="M1740 2252 c0 -12 68 -71 75 -64 9 10 5 43 -5 37 -5 -3 -15 3 -22 15
-12 19 -48 28 -48 12z"/>
<path d="M1830 2250 c0 -5 7 -10 15 -10 8 0 15 5 15 10 0 6 -7 10 -15 10 -8 0
-15 -4 -15 -10z"/>
<path d="M2188 2253 c-21 -5 -24 -33 -5 -33 14 0 37 20 37 32 0 8 -4 9 -32 1z"/>
<path d="M2266 2231 c-4 -7 -5 -15 -2 -18 9 -9 19 4 14 18 -4 11 -6 11 -12 0z"/>
<path d="M1520 2220 c0 -12 45 -24 59 -15 22 13 10 25 -24 25 -19 0 -35 -4
-35 -10z"/>
<path d="M1636 2212 c23 -22 65 -35 58 -18 -5 11 -50 36 -68 36 -5 0 -1 -8 10
-18z"/>
<path d="M1587 2203 c-12 -11 -8 -40 7 -52 10 -9 20 -9 40 0 27 13 37 33 12
23 -8 -3 -19 3 -26 15 -11 22 -22 26 -33 14z"/>
<path d="M1950 2165 c-16 -20 -10 -26 18 -18 12 3 22 12 22 19 0 19 -24 18
-40 -1z"/>
<path d="M2170 2159 c0 -5 5 -7 10 -4 6 3 10 8 10 11 0 2 -4 4 -10 4 -5 0 -10
-5 -10 -11z"/>
<path d="M2227 2147 c-11 -29 -8 -47 8 -47 8 0 15 -3 15 -8 0 -4 9 -13 20 -20
18 -11 20 -10 20 8 0 12 -10 25 -24 32 -14 6 -26 20 -28 32 -3 19 -4 19 -11 3z"/>
<path d="M2163 2063 c-13 -9 -23 -24 -23 -34 0 -24 17 -25 23 -1 3 13 7 10 16
-12 8 -20 9 -32 1 -40 -14 -14 -13 -26 4 -26 15 0 19 10 31 68 5 25 3 32 -8
32 -9 0 -17 6 -19 14 -2 11 -7 11 -25 -1z"/>
<path d="M2315 2069 c-12 -18 3 -22 20 -5 14 14 14 16 1 16 -8 0 -18 -5 -21
-11z"/>
<path d="M2502 2055 c-24 -24 -23 -45 3 -45 7 0 15 6 18 13 3 9 10 7 25 -7 16
-14 19 -23 12 -37 -15 -26 -12 -46 6 -53 13 -5 15 -1 10 20 -5 18 0 37 14 61
25 43 25 53 0 53 -11 0 -20 5 -20 10 0 18 -45 8 -68 -15z"/>
<path d="M1910 2004 c0 -8 5 -12 10 -9 6 4 8 11 5 16 -9 14 -15 11 -15 -7z"/>
<path d="M2127 1942 c-10 -10 -17 -26 -17 -35 0 -18 25 -23 35 -7 3 6 17 7 30
4 17 -4 26 0 35 15 9 19 8 21 -14 21 -14 0 -28 -5 -31 -10 -9 -15 -25 -2 -18
15 7 20 0 19 -20 -3z"/>
<path d="M2235 1950 c3 -5 8 -10 11 -10 2 0 4 5 4 10 0 6 -5 10 -11 10 -5 0
-7 -4 -4 -10z"/>
<path d="M2220 1890 c-6 -11 -20 -20 -30 -20 -23 0 -26 -15 -7 -27 7 -4 20
-21 30 -36 10 -15 22 -25 27 -22 6 4 5 13 -2 25 -9 14 -9 22 1 34 10 12 11 16
1 16 -8 0 -10 8 -6 25 8 30 1 33 -14 5z"/>
<path d="M2120 1864 c0 -8 5 -12 10 -9 6 4 8 11 5 16 -9 14 -15 11 -15 -7z"/>
<path d="M2010 1840 c0 -5 5 -10 11 -10 5 0 7 5 4 10 -3 6 -8 10 -11 10 -2 0
-4 -4 -4 -10z"/>
<path d="M2076 1841 c-3 -4 1 -17 9 -27 12 -16 11 -21 -1 -36 -10 -11 -12 -18
-5 -23 6 -3 11 0 11 7 0 18 36 39 55 32 10 -4 15 0 15 13 0 28 -11 35 -25 16
-15 -20 -50 -10 -41 12 6 16 -9 21 -18 6z"/>
<path d="M2015 1780 c-3 -5 1 -10 9 -10 9 0 16 5 16 10 0 6 -4 10 -9 10 -6 0
-13 -4 -16 -10z"/>
<path d="M2238 1748 c9 -9 15 -9 24 0 9 9 7 12 -12 12 -19 0 -21 -3 -12 -12z"/>
<path d="M2295 1740 c-3 -5 -1 -10 4 -10 6 0 11 5 11 10 0 6 -2 10 -4 10 -3 0
-8 -4 -11 -10z"/>
<path d="M3205 1717 c-11 -8 -45 -17 -75 -21 -30 -4 -71 -10 -91 -13 -20 -2
-47 1 -59 7 -29 16 -36 4 -45 -72 -5 -45 -3 -64 9 -83 15 -22 14 -29 -11 -105
-30 -92 -28 -99 42 -122 32 -11 41 -20 50 -48 20 -70 47 -79 83 -30 12 16 36
37 52 45 21 11 31 25 36 53 4 20 17 60 30 89 13 28 24 56 24 62 0 5 8 16 19
23 14 10 20 31 25 83 7 63 5 73 -16 105 -27 40 -45 46 -73 27z m-188 -213 c7
-18 -17 -38 -31 -24 -11 11 -1 40 14 40 6 0 13 -7 17 -16z"/>
<path d="M2083 1713 c-21 -8 -15 -22 7 -16 11 3 20 9 20 14 0 10 -8 10 -27 2z"/>
<path d="M2255 1690 c-7 -22 11 -53 26 -44 14 8 11 40 -5 53 -11 10 -16 8 -21
-9z"/>
<path d="M2330 1690 c0 -5 4 -10 9 -10 6 0 13 5 16 10 3 6 -1 10 -9 10 -9 0
-16 -4 -16 -10z"/>
<path d="M2157 1683 c-10 -9 -9 -23 2 -23 5 0 11 7 15 15 5 15 -5 20 -17 8z"/>
<path d="M2390 1676 c0 -9 5 -16 10 -16 6 0 10 4 10 9 0 6 -4 13 -10 16 -5 3
-10 -1 -10 -9z"/>
<path d="M2097 1665 c-18 -13 -18 -14 2 -25 17 -9 22 -8 27 5 10 24 -8 36 -29
20z"/>
<path d="M746 1654 c-8 -22 -8 -24 5 -21 6 1 14 -4 16 -10 3 -7 0 -13 -6 -13
-6 0 -11 -7 -11 -15 0 -8 7 -15 15 -15 9 0 18 -12 22 -30 8 -40 19 -46 27 -14
5 17 2 32 -9 43 -8 10 -15 29 -15 42 0 40 -32 64 -44 33z"/>
<path d="M2464 1635 c-18 -14 -18 -14 4 -8 12 3 22 9 22 14 0 12 -3 11 -26 -6z"/>
<path d="M2305 1600 c-3 -5 -1 -10 4 -10 6 0 11 5 11 10 0 6 -2 10 -4 10 -3 0
-8 -4 -11 -10z"/>
<path d="M2437 1584 c-4 -4 -7 -14 -7 -23 0 -11 3 -12 11 -4 6 6 10 16 7 23
-2 6 -7 8 -11 4z"/>
<path d="M839 1549 c-9 -17 -8 -25 4 -36 20 -21 37 -8 37 28 0 35 -24 39 -41
8z"/>
<path d="M2500 1560 c0 -6 -9 -29 -19 -51 -11 -22 -17 -47 -14 -55 3 -8 -2
-22 -10 -32 -9 -9 -19 -41 -23 -70 -3 -29 -11 -55 -16 -58 -6 -4 -5 -9 2 -14
9 -6 9 -12 0 -29 -15 -29 -9 -48 10 -30 30 29 70 43 82 31 18 -18 30 -14 23 8
-7 23 3 25 30 6 11 -7 29 -15 39 -17 13 -3 20 -14 23 -40 3 -37 -20 -109 -36
-109 -15 0 -71 -57 -71 -72 0 -8 -7 -23 -15 -34 -17 -22 -19 -50 -5 -59 5 -3
23 4 39 16 l30 22 33 -35 c18 -19 39 -37 46 -39 7 -2 15 -31 19 -72 6 -73 12
-81 58 -84 17 -1 47 -5 68 -9 47 -8 99 2 125 24 11 9 28 22 37 27 10 6 18 26
19 50 2 22 9 53 15 70 20 50 7 71 -65 105 -110 53 -167 117 -123 140 10 6 19
19 19 29 0 10 11 23 25 29 49 22 70 110 27 114 -9 0 -21 2 -27 2 -5 1 -29 20
-53 43 -33 33 -52 43 -86 48 -71 8 -76 12 -62 47 10 27 9 32 -11 45 -13 9 -23
22 -23 29 0 23 -18 16 -36 -15 -32 -55 -61 -47 -55 16 1 12 -3 24 -9 28 -5 3
-10 1 -10 -5z m327 -302 c-3 -8 -6 -5 -6 6 -1 11 2 17 5 13 3 -3 4 -12 1 -19z
m-67 -147 c7 -15 6 -23 -6 -35 -18 -18 -23 -19 -44 -6 -12 7 -11 13 10 34 28
31 27 31 40 7z m-77 -28 c-7 -2 -19 -2 -25 0 -7 3 -2 5 12 5 14 0 19 -2 13 -5z"/>
<path d="M2342 1538 c6 -18 28 -21 28 -4 0 9 -7 16 -16 16 -9 0 -14 -5 -12
-12z"/>
<path d="M890 1530 c0 -5 5 -10 10 -10 6 0 10 5 10 10 0 6 -4 10 -10 10 -5 0
-10 -4 -10 -10z"/>
<path d="M2390 1435 c-13 -14 -19 -25 -13 -25 12 0 48 38 41 45 -2 3 -15 -6
-28 -20z"/>
<path d="M1791 1331 c-7 -5 -11 -13 -7 -19 8 -13 58 0 64 16 4 14 -36 16 -57
3z"/>
<path d="M1930 1283 c1 -11 26 -43 34 -43 3 0 6 11 6 25 0 18 -5 25 -20 25
-11 0 -20 -3 -20 -7z"/>
<path d="M2300 1245 c0 -8 5 -15 10 -15 6 0 10 7 10 15 0 8 -4 15 -10 15 -5 0
-10 -7 -10 -15z"/>
<path d="M680 1237 c0 -18 28 -42 37 -33 9 8 -9 38 -25 44 -7 2 -12 -3 -12
-11z"/>
<path d="M1880 1225 c0 -9 5 -15 11 -13 6 2 11 8 11 13 0 5 -5 11 -11 13 -6 2
-11 -4 -11 -13z"/>
<path d="M2020 1224 c0 -17 22 -14 28 4 2 7 -3 12 -12 12 -9 0 -16 -7 -16 -16z"/>
<path d="M845 1222 c-5 -4 -10 -14 -10 -22 0 -8 -7 -14 -15 -12 -8 1 -2 -10
15 -24 16 -15 31 -22 32 -17 7 19 -12 82 -22 75z"/>
<path d="M1940 1210 c-12 -8 -12 -10 3 -16 21 -8 35 2 21 16 -5 5 -15 6 -24 0z"/>
<path d="M927 1194 c-8 -8 3 -34 14 -34 5 0 9 9 9 20 0 19 -11 26 -23 14z"/>
<path d="M993 1176 c9 -7 17 -20 17 -29 0 -9 11 -28 25 -43 20 -22 26 -24 31
-11 7 19 -54 97 -76 97 -12 -1 -12 -3 3 -14z"/>
<path d="M1871 1173 c0 -5 4 -17 9 -28 8 -18 9 -17 9 8 1 15 -3 27 -9 27 -5 0
-10 -3 -9 -7z"/>
<path d="M1838 1164 c-5 -4 -8 -16 -8 -28 0 -14 3 -17 11 -9 6 6 9 19 7 28 -1
9 -6 13 -10 9z"/>
<path d="M1910 1139 c0 -6 -9 -18 -21 -27 -11 -10 -21 -26 -23 -36 -1 -11 -8
-22 -15 -24 -10 -3 -10 0 -2 16 14 26 1 35 -46 36 -19 1 -37 7 -42 14 -6 11
-14 8 -35 -11 -45 -42 -27 -85 21 -48 14 12 28 19 30 17 8 -8 -22 -46 -37 -46
-8 0 -28 -16 -43 -35 -27 -34 -18 -51 12 -22 11 10 12 6 7 -19 -7 -30 -6 -31
24 -26 32 5 42 22 13 22 -13 0 -14 3 -5 12 14 14 27 4 46 -34 10 -19 19 -23
52 -21 23 2 44 10 51 20 10 13 17 14 37 5 17 -8 27 -7 36 1 10 9 12 8 7 -5 -8
-24 9 -32 22 -11 8 15 13 16 28 7 14 -9 17 -22 15 -55 -2 -24 -10 -48 -18 -54
-7 -5 -16 -24 -20 -41 -5 -25 -1 -33 18 -46 20 -13 30 -14 60 -3 31 10 38 10
42 -1 7 -18 36 -18 36 -1 0 19 37 50 49 42 6 -3 25 1 43 9 18 8 46 17 61 20
61 14 49 72 -20 101 -25 10 -33 21 -38 49 -4 21 -17 41 -31 51 -13 8 -24 21
-24 28 -1 6 -10 23 -21 37 -17 20 -31 25 -65 25 -42 0 -44 2 -44 28 0 34 -23
32 -28 -1 -4 -23 -17 -29 -27 -12 -4 6 -17 4 -36 -5 -36 -19 -49 -13 -49 26 0
16 -4 29 -10 29 -5 0 -10 -5 -10 -11z m-76 -70 c-3 -5 -10 -7 -15 -3 -5 3 -7
10 -3 15 3 5 10 7 15 3 5 -3 7 -10 3 -15z m-24 -49 c0 -5 -8 -10 -17 -10 -15
0 -16 2 -3 10 19 12 20 12 20 0z"/>
<path d="M2361 1113 c-1 -6 -10 -15 -21 -18 -23 -7 -27 -35 -5 -35 17 0 38 36
31 53 -3 9 -5 9 -5 0z"/>
<path d="M2452 1068 c-16 -16 -15 -38 2 -38 17 0 30 30 18 42 -4 4 -13 3 -20
-4z"/>
<path d="M980 1050 c20 -13 33 -13 25 0 -3 6 -14 10 -23 10 -15 0 -15 -2 -2
-10z"/>
<path d="M2226 1035 c4 -8 10 -12 15 -9 14 8 10 24 -6 24 -9 0 -12 -6 -9 -15z"/>
<path d="M1650 920 c0 -5 5 -10 11 -10 5 0 7 5 4 10 -3 6 -8 10 -11 10 -2 0
-4 -4 -4 -10z"/>
<path d="M1871 890 c-13 -11 -34 -20 -47 -20 -27 0 -32 -21 -10 -39 11 -10 17
-8 25 6 8 14 12 16 22 6 19 -19 29 -16 29 11 0 13 7 27 16 30 8 3 12 10 9 16
-9 14 -17 12 -44 -10z"/>
<path d="M1265 877 c-12 -9 -14 -16 -7 -21 6 -3 16 3 22 14 13 24 10 25 -15 7z"/>
<path d="M1860 780 c0 -5 5 -10 10 -10 6 0 10 5 10 10 0 6 -4 10 -10 10 -5 0
-10 -4 -10 -10z"/>
<path d="M2417 723 c-4 -3 -7 -19 -7 -34 0 -22 -6 -30 -26 -35 -14 -4 -30 -2
-37 5 -17 17 -42 13 -62 -9 -25 -27 -64 -25 -95 5 -36 35 -114 41 -167 14 -20
-10 -45 -19 -55 -19 -11 0 -20 -10 -24 -25 -8 -32 -1 -40 23 -27 23 13 73 4
80 -15 3 -7 -3 -23 -13 -35 -19 -20 -19 -21 4 -35 26 -18 29 -45 6 -63 -26
-23 -36 -48 -24 -69 17 -32 146 -55 175 -31 7 6 22 4 41 -6 16 -9 46 -17 66
-19 30 -3 40 0 48 16 8 13 19 19 38 17 21 -3 30 4 49 37 12 22 47 71 78 110
73 91 71 104 -18 139 -27 11 -42 25 -52 51 -16 37 -18 39 -28 28z"/>
<path d="M3708 3 c7 -3 16 -2 19 1 4 3 -2 6 -13 5 -11 0 -14 -3 -6 -6z"/>
</g>
</svg>
